<svg width="41" height="41" viewBox="0 0 41 41" fill="none" xmlns="http://www.w3.org/2000/svg">
<path d="M31.0723 11.0334C30.4614 10.3887 29.7361 9.87736 28.9378 9.52847C28.1396 9.17958 27.2839 9 26.4199 9C25.5558 9 24.7001 9.17958 23.9019 9.52847C23.1036 9.87736 22.3783 10.3887 21.7674 11.0334V11.0334C21.6019 11.208 21.5192 11.2952 21.441 11.3583C20.8916 11.8011 20.1078 11.8011 19.5584 11.3583C19.4802 11.2952 19.3974 11.208 19.2319 11.0334V11.0334C17.998 9.73186 16.3245 9.00067 14.5795 9.00067C12.8345 9.00067 11.161 9.73186 9.92709 11.0334C8.6932 12.3349 8 14.1001 8 15.9407C8 17.7813 8.6932 19.5466 9.92709 20.8481L11.1948 22.1853L18.3226 29.7036C19.3441 30.7811 19.8548 31.3198 20.4997 31.3198C21.1446 31.3198 21.6553 30.7811 22.6768 29.7036L29.8045 22.1853L31.0723 20.8481C31.6834 20.2037 32.1682 19.4387 32.499 18.5967C32.8298 17.7547 33 16.8522 33 15.9407C33 15.0293 32.8298 14.1268 32.499 13.2848C32.1682 12.4427 31.6834 11.6777 31.0723 11.0334Z" stroke="white" stroke-width="1.5" stroke-linecap="round" stroke-linejoin="round"/>
</svg>
