<svg width="65" height="65" viewBox="0 0 65 65" fill="none" xmlns="http://www.w3.org/2000/svg">
<path d="M32.5 0C14.5509 0 0 14.5511 0 32.5C0 50.4502 14.5511 65 32.5 65C50.4504 65 65 50.4502 65 32.5C65 14.5524 50.4504 0.00177734 32.4995 0.00177734L32.4997 0.000253906L32.5 0ZM47.404 46.8746C46.8218 47.8293 45.5721 48.132 44.6174 47.546C36.9868 42.885 27.381 41.8293 16.0682 44.414C15.5443 44.5333 14.9946 44.4396 14.5398 44.1535C14.085 43.8675 13.7624 43.4126 13.6429 42.8888C13.5833 42.6295 13.5755 42.361 13.6199 42.0987C13.6643 41.8363 13.76 41.5853 13.9015 41.36C14.043 41.1347 14.2275 40.9395 14.4446 40.7857C14.6616 40.6318 14.9069 40.5222 15.1663 40.4633C27.5468 37.6347 38.1659 38.8525 46.7327 44.088C47.6874 44.674 47.9901 45.92 47.404 46.8746ZM51.382 38.0253C50.6482 39.2173 49.0882 39.5939 47.8969 38.8604C39.161 33.4907 25.8444 31.9356 15.5116 35.0721C14.1715 35.4768 12.7563 34.7217 12.3495 33.3838C11.9458 32.0437 12.7014 30.631 14.0392 30.2237C25.8421 26.6421 40.5153 28.3771 50.5477 34.5419C51.739 35.2757 52.1155 36.8357 51.382 38.0255V38.0253ZM51.7235 28.8102C41.2488 22.5885 23.9672 22.0162 13.9666 25.0519C12.3607 25.5389 10.6623 24.6322 10.1758 23.0263C9.68906 21.4195 10.5947 19.7224 12.202 19.2342C23.6818 15.749 42.7664 16.4227 54.8257 23.5818C56.2735 24.439 56.7468 26.3047 55.8891 27.7471C55.0355 29.1919 53.1647 29.6679 51.725 28.8102H51.7235V28.8102Z" fill="#1ED760"/>
</svg>
