<svg width="65" height="65" viewBox="0 0 65 65" fill="none" xmlns="http://www.w3.org/2000/svg">
<circle cx="32.4999" cy="33.4999" r="1.85" stroke="white"/>
<circle cx="32.5" cy="33.5" r="6.75" stroke="white" stroke-width="1.5"/>
<rect x="20.55" y="20.55" width="29.45" height="29.45" rx="3" stroke="white" stroke-width="2"/>
<path d="M45 25V41C45 43.2091 43.2091 45 41 45H39" stroke="white" stroke-width="1.5"/>
<path fill-rule="evenodd" clip-rule="evenodd" d="M22 15.5H35.6C37.528 15.5 38.8231 15.5032 39.7892 15.6331C40.7121 15.7572 41.1071 15.9716 41.3678 16.2322C41.6284 16.4929 41.8428 16.8879 41.9669 17.8108C42.032 18.2951 42.0653 18.8621 42.0823 19.55H43C43.1995 19.55 43.3937 19.55 43.5828 19.5502C43.5297 17.3476 43.3129 16.0561 42.4284 15.1716C41.2569 14 39.3712 14 35.6 14H22C18.2288 14 16.3431 14 15.1716 15.1716C14 16.3431 14 18.2288 14 22V35.6C14 39.3712 14 41.2569 15.1716 42.4284C16.0561 43.3129 17.3476 43.5297 19.5502 43.5828C19.55 43.3937 19.55 43.1995 19.55 43V42.0823C18.8621 42.0653 18.2951 42.032 17.8108 41.9669C16.8879 41.8428 16.4929 41.6284 16.2322 41.3678C15.9716 41.1071 15.7572 40.7121 15.6331 39.7892C15.5032 38.8231 15.5 37.528 15.5 35.6V22C15.5 20.072 15.5032 18.7769 15.6331 17.8108C15.7572 16.8879 15.9716 16.4929 16.2322 16.2322C16.4929 15.9716 16.8879 15.7572 17.8108 15.6331C18.7769 15.5032 20.072 15.5 22 15.5Z" fill="white"/>
<circle cx="26.5" cy="44.5" r="0.5" fill="white"/>
</svg>
