<svg width="65" height="65" viewBox="0 0 65 65" fill="none" xmlns="http://www.w3.org/2000/svg">
<path d="M39.9988 49.15C46.4798 46.2946 51 39.8514 51 32.3605C51 22.2203 42.7173 14 32.5 14C22.2827 14 14 22.2203 14 32.3605C14 39.8514 18.5202 46.2946 25.0012 49.15" stroke="white" stroke-width="2" stroke-linecap="round"/>
<path d="M40.3039 40.8279C42.6139 38.7298 44.0625 35.713 44.0625 32.3604C44.0625 26.0228 38.8858 20.8852 32.5 20.8852C26.1142 20.8852 20.9375 26.0228 20.9375 32.3604C20.9375 35.713 22.3861 38.7297 24.696 40.8278" stroke="white" stroke-width="2" stroke-linecap="round"/>
<path d="M32.8233 51.0001C31.2907 51.0001 31.19 49.7423 30.9732 48.2251L30.0482 41.7501C29.7592 39.7272 30.7798 38.05 32.8233 38.05C34.8667 38.05 35.8872 39.7272 35.5982 41.7501L34.6732 48.2251C34.4565 49.7423 34.3558 51.0001 32.8233 51.0001Z" fill="white"/>
<circle cx="32.8233" cy="31.575" r="2.775" fill="white"/>
</svg>
