<svg width="65" height="65" viewBox="0 0 65 65" fill="none" xmlns="http://www.w3.org/2000/svg">
<path fill-rule="evenodd" clip-rule="evenodd" d="M26.815 18.7392C27.6447 18.396 28.2298 17.6148 28.2634 16.7175C28.3019 15.6869 28.4318 15.0609 28.8699 14.6228C29.4928 14 30.4952 14 32.5 14C34.5048 14 35.5072 14 36.1301 14.6228C36.5645 15.0573 36.6959 15.6764 36.7356 16.6917C36.7714 17.6042 37.3658 18.3986 38.2091 18.7491C39.0533 19.1 40.0241 18.9529 40.6958 18.3327C41.4378 17.6475 41.967 17.305 42.5793 17.305C43.4601 17.305 44.1689 18.0138 45.5866 19.4314C47.0042 20.849 47.713 21.5578 47.713 22.4386C47.713 23.0554 47.3654 23.5879 46.6703 24.3384C46.0547 25.0031 45.9084 25.9651 46.2555 26.8019C46.6026 27.639 47.391 28.2292 48.2966 28.2639C49.3188 28.3031 49.9411 28.4338 50.3772 28.87C51 29.4928 51 30.4952 51 32.5C51 34.5048 51 35.5072 50.3772 36.13C49.9367 36.5705 49.3065 36.6995 48.2662 36.7372C47.3785 36.7695 46.6057 37.3487 46.2671 38.1699C45.93 38.9876 46.0743 39.9268 46.6765 40.5747C47.3839 41.3357 47.7376 41.8721 47.7376 42.4943C47.7376 43.3751 47.0288 44.0839 45.6112 45.5015C44.1935 46.9191 43.4847 47.6279 42.6039 47.6279C42.0092 47.6279 41.4929 47.3048 40.7839 46.6586C40.0925 46.0283 39.1003 45.8783 38.2371 46.2392C37.3781 46.5983 36.7728 47.4079 36.7344 48.3381C36.6933 49.3357 36.5602 49.947 36.1301 50.3772C35.5072 51 34.5048 51 32.5 51C30.4952 51 29.4928 51 28.8699 50.3772C28.4335 49.9407 28.3029 49.3179 28.2638 48.2943C28.2293 47.3901 27.6399 46.6028 26.804 46.2563C25.9686 45.91 25.0081 46.0561 24.3448 46.6708C23.5926 47.3678 23.0596 47.7163 22.442 47.7163C21.5612 47.7163 20.8523 47.0075 19.4347 45.5899C18.0171 44.1723 17.3083 43.4635 17.3083 42.5827C17.3083 41.9712 17.6499 41.4426 18.3332 40.7021C18.9543 40.0291 19.1016 39.0567 18.75 38.2111C18.3988 37.3667 17.6033 36.7715 16.6895 36.7356C15.6755 36.6957 15.057 36.5642 14.6228 36.13C14 35.5072 14 34.5048 14 32.5C14 30.4952 14 29.4928 14.6228 28.87C15.0553 28.4375 15.6708 28.3053 16.6778 28.2649C17.5986 28.228 18.4 27.6285 18.7545 26.7779C19.11 25.9249 18.9619 24.944 18.3362 24.2638C17.6629 23.5318 17.3262 23.0065 17.3262 22.3994C17.3262 21.5186 18.035 20.8098 19.4526 19.3922C20.8703 17.9746 21.5791 17.2658 22.4599 17.2658C23.0819 17.2658 23.6182 17.6193 24.379 18.3265C25.0353 18.9364 25.987 19.0816 26.815 18.7392ZM36.7529 32.5C36.7529 34.8488 34.8488 36.7529 32.5 36.7529C30.1512 36.7529 28.2471 34.8488 28.2471 32.5C28.2471 30.1512 30.1512 28.2471 32.5 28.2471C34.8488 28.2471 36.7529 30.1512 36.7529 32.5Z" stroke="white" stroke-width="2" stroke-linejoin="round"/>
</svg>
