<svg width="65" height="65" viewBox="0 0 65 65" fill="none" xmlns="http://www.w3.org/2000/svg">
<circle cx="32.5" cy="32.5" r="17.5" stroke="white" stroke-width="2"/>
<path d="M32.0001 42.675C30.0898 42.675 28.2331 42.1666 26.8573 41.6602C25.8365 41.2844 25.3261 41.0965 25.0766 40.4823C24.8272 39.868 25.0657 39.3699 25.5427 38.3736C26.4556 36.4672 27.9798 33.9974 29.8858 33.5931C30.943 33.3689 33.0572 33.3689 34.1144 33.5931C36.0204 33.9974 37.5446 36.4672 38.4575 38.3736C38.9345 39.3699 39.173 39.868 38.9236 40.4823C38.6741 41.0965 38.1637 41.2844 37.1429 41.6602C35.7671 42.1666 33.9104 42.675 32.0001 42.675Z" stroke="white" stroke-width="2" stroke-linecap="round"/>
<circle cx="32" cy="26.025" r="3.7" stroke="white" stroke-width="2"/>
</svg>
