<svg width="27" height="27" viewBox="0 0 27 27" fill="none" xmlns="http://www.w3.org/2000/svg">
<path d="M25.2226 1.51823C25.5549 1.29672 26 1.53491 26 1.93426V25.0657C26 25.4651 25.5549 25.7033 25.2226 25.4818L7.87404 13.916C7.57717 13.7181 7.57717 13.2819 7.87404 13.084L25.2226 1.51823Z" fill="white"/>
<path d="M4.125 1.5C4.125 1.22386 3.90114 1 3.625 1H1.5C1.22386 1 1 1.22386 1 1.5V25.5C1 25.7761 1.22386 26 1.5 26H3.625C3.90114 26 4.125 25.7761 4.125 25.5V1.5Z" fill="white"/>
<path d="M25.2226 1.51823C25.5549 1.29672 26 1.53491 26 1.93426V25.0657C26 25.4651 25.5549 25.7033 25.2226 25.4818L7.87404 13.916C7.57717 13.7181 7.57717 13.2819 7.87404 13.084L25.2226 1.51823Z" stroke="white"/>
<path d="M4.125 1.5C4.125 1.22386 3.90114 1 3.625 1H1.5C1.22386 1 1 1.22386 1 1.5V25.5C1 25.7761 1.22386 26 1.5 26H3.625C3.90114 26 4.125 25.7761 4.125 25.5V1.5Z" stroke="white"/>
</svg>
