<svg width="33" height="29" viewBox="0 0 33 29" fill="none" xmlns="http://www.w3.org/2000/svg">
<path d="M4.58582 5.05188C4.88592 4.69464 5.2195 4.36605 5.58585 4.07198L2.34758 1.40652C2.06834 1.17667 1.65958 1.19898 1.40701 1.45786C1.1224 1.74959 1.14821 2.22233 1.46288 2.48134L4.58582 5.05188Z" fill="white"/>
<path d="M24.0462 21.0699C24.4003 20.767 24.7519 20.4542 25.0975 20.1321L6.7687 5.0456C6.38784 5.32466 6.04916 5.64978 5.75153 6.01139L24.0462 21.0699Z" fill="white"/>
<path d="M26.2658 21.0938C25.9204 21.4181 25.5704 21.7323 25.2195 22.0356L29.4115 25.5809C29.6907 25.817 30.105 25.7972 30.3603 25.5354C30.6426 25.2461 30.6203 24.778 30.3116 24.5168L26.2658 21.0938Z" fill="white"/>
<path fill-rule="evenodd" clip-rule="evenodd" d="M4.1304 10.9447C4.1304 9.72387 4.37157 8.53632 4.83692 7.5L3.32202 7.15187C2.83046 8.33508 2.58996 9.64033 2.58996 10.9447C2.58996 13.2385 3.53451 15.4116 4.88405 17.3506C6.23503 19.2919 8.0222 21.0427 9.78537 22.5071C11.5515 23.974 13.314 25.1704 14.6331 25.9996C15.2935 26.4146 15.8445 26.7386 16.2319 26.9598C16.4257 27.0703 16.5787 27.1553 16.6839 27.213C16.7366 27.2418 16.7774 27.2638 16.8054 27.2789L16.8378 27.2961L16.8465 27.3008L16.8499 27.3026L17.2241 27.5L17.5983 27.3026L17.6017 27.3008L17.6104 27.2961L17.6191 27.2916L17.6428 27.2789C17.6708 27.2638 17.7117 27.2418 17.7643 27.213C17.8695 27.1553 18.0225 27.0703 18.2163 26.9598C18.6037 26.7386 19.1547 26.4146 19.8151 25.9996C20.9236 25.3028 22.3452 24.3467 23.819 23.1886L22.8685 22.0356C21.4369 23.1628 20.0496 24.0967 18.9656 24.778C18.3261 25.1798 17.7941 25.4926 17.4233 25.7043C17.3506 25.7458 17.284 25.7834 17.2241 25.8171C17.1642 25.7834 17.0976 25.7458 17.0249 25.7043C16.6541 25.4926 16.1221 25.1798 15.4826 24.778C14.2022 23.9733 12.4988 22.8162 10.7989 21.4044C9.09612 19.9899 7.41729 18.3366 6.16878 16.5427C4.91884 14.7466 4.1304 12.8538 4.1304 10.9447ZM24.0462 21.0699L25.2195 22.0356C25.5704 21.7323 25.9204 21.4181 26.2658 21.0938L25.0975 20.1321C24.7519 20.4542 24.4003 20.767 24.0462 21.0699ZM17.2241 26.6626L17.5983 27.3026C17.5983 27.3026 17.5978 27.3029 17.2241 26.6626ZM16.8499 27.3026L17.2241 26.6626C16.8504 27.3029 16.8499 27.3026 16.8499 27.3026ZM6.7687 5.0456C6.38784 5.32466 6.04916 5.64978 5.75153 6.01139L4.58582 5.05188C4.88592 4.69464 5.2195 4.36605 5.58585 4.07198L6.7687 5.0456Z" fill="white"/>
<path fill-rule="evenodd" clip-rule="evenodd" d="M30.3178 10.9447C30.3178 12.8538 29.5294 14.7466 28.2795 16.5427C27.6848 17.3973 26.9924 18.2199 26.2462 19L27.4681 19.8989C27.633 19.7249 27.7958 19.5485 27.9559 19.3699C28.5342 18.7245 29.0774 18.0499 29.5641 17.3506C30.9137 15.4116 31.8582 13.2385 31.8582 10.9447C31.8582 8.85427 31.2453 6.76016 29.9671 5.17025C28.672 3.5596 26.7164 2.49999 24.1561 2.49999C21.6168 2.49999 19.7155 3.50886 18.464 4.5002C17.941 4.91454 17.5274 5.32866 17.2224 5.67148C16.916 5.32869 16.5009 4.91432 15.9764 4.49972C14.7235 3.5093 12.8223 2.49999 10.2921 2.49999C9.44721 2.49999 8.66771 2.61624 7.95587 2.8302L8.44367 4.21961C9.00268 4.05418 9.61828 3.96439 10.2921 3.96439C12.3641 3.96439 13.9288 4.78558 14.9914 5.62567C15.523 6.04592 15.9227 6.4665 16.188 6.78001C16.3202 6.93638 16.418 7.06494 16.4812 7.15187C16.5127 7.1953 16.5355 7.22822 16.5495 7.24889L16.5639 7.27044L16.5662 7.27388L17.2269 8.312L17.8837 7.27125L17.8857 7.26823C17.8882 7.26431 17.893 7.25707 17.8999 7.24678C17.9138 7.22617 17.9364 7.19333 17.9677 7.14997C18.0302 7.06319 18.1273 6.93477 18.2588 6.77856C18.5224 6.46536 18.9201 6.04513 19.4502 5.62519C20.5094 4.78602 22.074 3.96439 24.1561 3.96439C26.217 3.96439 27.7274 4.7963 28.7432 6.05953C29.7754 7.34353 30.3178 9.10568 30.3178 10.9447Z" fill="white"/>
<path d="M16.5639 7.27044L16.5662 7.27388L17.2269 8.312L17.8837 7.27125L17.8857 7.26823C17.8882 7.26431 17.893 7.25707 17.8999 7.24678C17.9138 7.22617 17.9364 7.19333 17.9677 7.14997C18.0302 7.06319 18.1273 6.93477 18.2588 6.77856C18.5224 6.46536 18.9201 6.04513 19.4502 5.62519C20.5094 4.78602 22.074 3.96439 24.1561 3.96439C26.217 3.96439 27.7274 4.7963 28.7432 6.05953C29.7754 7.34353 30.3178 9.10568 30.3178 10.9447C30.3178 12.8538 29.5294 14.7466 28.2795 16.5427C27.6848 17.3973 26.9924 18.2199 26.2462 19M16.5639 7.27044C16.5613 7.26647 16.5565 7.25921 16.5495 7.24889M16.5639 7.27044L16.5495 7.24889M16.5495 7.24889C16.5355 7.22822 16.5127 7.1953 16.4812 7.15187C16.418 7.06494 16.3202 6.93638 16.188 6.78001C15.9227 6.4665 15.523 6.04592 14.9914 5.62567C13.9288 4.78558 12.3641 3.96439 10.2921 3.96439C9.61828 3.96439 9.00268 4.05418 8.44367 4.21961M17.2241 26.6626C16.8504 27.3029 16.8499 27.3026 16.8499 27.3026M17.2241 26.6626C17.5978 27.3029 17.5983 27.3026 17.5983 27.3026M17.2241 26.6626L17.5983 27.3026M17.2241 26.6626L16.8499 27.3026M16.8499 27.3026L16.8465 27.3008L16.8378 27.2961M16.8499 27.3026L17.2241 27.5L17.5983 27.3026M16.8378 27.2961C16.8302 27.2922 16.8194 27.2863 16.8054 27.2789M16.8378 27.2961L16.8054 27.2789M16.8054 27.2789C16.7774 27.2638 16.7366 27.2418 16.6839 27.213C16.5787 27.1553 16.4257 27.0703 16.2319 26.9598C15.8445 26.7386 15.2935 26.4146 14.6331 25.9996C13.314 25.1704 11.5515 23.974 9.78537 22.5071C8.0222 21.0427 6.23503 19.2919 4.88405 17.3506C3.53451 15.4116 2.58996 13.2385 2.58996 10.9447C2.58996 9.64033 2.83046 8.33508 3.32202 7.15187M17.6428 27.2789C17.6708 27.2638 17.7117 27.2418 17.7643 27.213C17.8695 27.1553 18.0225 27.0703 18.2163 26.9598C18.6037 26.7386 19.1547 26.4146 19.8151 25.9996C20.9236 25.3028 22.3452 24.3467 23.819 23.1886M17.6428 27.2789C17.6336 27.2838 17.6255 27.2881 17.6191 27.2916M17.6428 27.2789L17.6191 27.2916M17.6191 27.2916C17.6158 27.2934 17.6129 27.2948 17.6104 27.2961M17.6191 27.2916L17.6104 27.2961M17.6104 27.2961L17.6017 27.3008L17.5983 27.3026M4.58582 5.05188C4.88592 4.69464 5.2195 4.36605 5.58585 4.07198M4.58582 5.05188L1.46288 2.48134C1.14821 2.22233 1.1224 1.74959 1.40701 1.45786V1.45786C1.65958 1.19898 2.06834 1.17667 2.34758 1.40652L5.58585 4.07198M4.58582 5.05188C4.55312 5.09081 4.52082 5.13007 4.48892 5.16967C4.00693 5.76791 3.61873 6.43765 3.32202 7.15187M4.58582 5.05188L5.75153 6.01139M5.58585 4.07198L6.7687 5.0456M5.58585 4.07198C6.2648 3.52698 7.05631 3.10058 7.95587 2.8302M24.0462 21.0699C24.4003 20.767 24.7519 20.4542 25.0975 20.1321M24.0462 21.0699L5.75153 6.01139M24.0462 21.0699C23.9142 21.1828 23.7818 21.2943 23.6493 21.4044C23.3886 21.6209 23.1278 21.8314 22.8685 22.0356M24.0462 21.0699L25.2195 22.0356M25.0975 20.1321L6.7687 5.0456M25.0975 20.1321L26.2658 21.0938M25.0975 20.1321C25.4901 19.7661 25.8748 19.3883 26.2462 19M6.7687 5.0456C6.38784 5.32466 6.04916 5.64978 5.75153 6.01139M6.7687 5.0456C7.25692 4.68787 7.81445 4.40581 8.44367 4.21961M5.75153 6.01139C5.73822 6.02756 5.725 6.0438 5.71185 6.06011C5.36443 6.49132 5.07206 6.97636 4.83692 7.5M26.2658 21.0938C25.9204 21.4181 25.5704 21.7323 25.2195 22.0356M26.2658 21.0938L30.3116 24.5168C30.6203 24.778 30.6426 25.2461 30.3603 25.5354V25.5354C30.105 25.7972 29.6907 25.817 29.4115 25.5809L25.2195 22.0356M26.2658 21.0938C26.675 20.7094 27.0778 20.3107 27.4681 19.8989M25.2195 22.0356C25.0341 22.1959 24.8483 22.3531 24.6629 22.5071C24.3809 22.7413 24.099 22.9686 23.819 23.1886M7.95587 2.8302C8.66771 2.61624 9.44721 2.49999 10.2921 2.49999C12.8223 2.49999 14.7235 3.5093 15.9764 4.49972C16.5009 4.91432 16.916 5.32869 17.2224 5.67148C17.5274 5.32866 17.941 4.91454 18.464 4.5002C19.7155 3.50886 21.6168 2.49999 24.1561 2.49999C26.7164 2.49999 28.672 3.5596 29.9671 5.17025C31.2453 6.76016 31.8582 8.85427 31.8582 10.9447C31.8582 13.2385 30.9137 15.4116 29.5641 17.3506C29.0774 18.0499 28.5342 18.7245 27.9559 19.3699C27.7958 19.5485 27.633 19.7249 27.4681 19.8989M7.95587 2.8302L8.44367 4.21961M3.32202 7.15187L4.83692 7.5M4.83692 7.5C4.37157 8.53632 4.1304 9.72387 4.1304 10.9447C4.1304 12.8538 4.91884 14.7466 6.16878 16.5427C7.41729 18.3366 9.09611 19.9899 10.7989 21.4044C12.4988 22.8162 14.2022 23.9733 15.4826 24.778C16.1221 25.1798 16.6541 25.4926 17.0249 25.7043C17.0976 25.7458 17.1642 25.7834 17.2241 25.8171C17.284 25.7834 17.3506 25.7458 17.4233 25.7043C17.7941 25.4926 18.3261 25.1798 18.9656 24.778C20.0496 24.0967 21.4369 23.1628 22.8685 22.0356M23.819 23.1886L22.8685 22.0356M27.4681 19.8989L26.2462 19" stroke="white"/>
</svg>
