<svg width="27" height="27" viewBox="0 0 27 27" fill="none" xmlns="http://www.w3.org/2000/svg">
<path d="M25.3613 6.57647C25.6616 6.37456 25.6546 5.93034 25.348 5.73799L18.5626 1.48047C18.2296 1.27153 17.7969 1.51089 17.7969 1.904V6.33088V10.7231C17.7969 11.1234 18.2437 11.3614 18.5758 11.1381L25.3613 6.57647Z" fill="white"/>
<path d="M25.325 21.2765C25.6373 21.0805 25.6373 20.6254 25.325 20.4294L18.5626 16.1864C18.2296 15.9774 17.7969 16.2168 17.7969 16.6099V20.8529V25.096C17.7969 25.4891 18.2296 25.7285 18.5626 25.5195L25.325 21.2765Z" fill="white"/>
<path d="M17.7969 6.33088V1.904C17.7969 1.51089 18.2296 1.27153 18.5626 1.48047L25.348 5.73799C25.6546 5.93034 25.6616 6.37456 25.3613 6.57647L18.5758 11.1381C18.2437 11.3614 17.7969 11.1234 17.7969 10.7231V6.33088ZM17.7969 6.33088C13.4593 6.69935 11.6922 7.96281 10.375 13.1324C9.33538 18.7415 7.43665 20.5851 1 20.8529M1 6.14706C4.11827 5.84616 5.64749 6.36119 8.03125 8.35294M17.7969 20.8529V16.6099C17.7969 16.2168 18.2296 15.9774 18.5626 16.1864L25.325 20.4294C25.6373 20.6254 25.6373 21.0805 25.325 21.2765L18.5626 25.5195C18.2296 25.7285 17.7969 25.4891 17.7969 25.096V20.8529ZM17.7969 20.8529C15.5668 20.6675 14.4235 20.2664 12.7187 18.6471" stroke="white" stroke-width="2"/>
</svg>
