<svg width="27" height="27" viewBox="0 0 27 27" fill="none" xmlns="http://www.w3.org/2000/svg">
<path d="M1.77735 25.4818C1.44508 25.7033 1 25.4651 1 25.0657V1.93426C1 1.53491 1.44507 1.29671 1.77735 1.51823L19.126 13.084C19.4228 13.2819 19.4228 13.7181 19.126 13.916L1.77735 25.4818Z" fill="white"/>
<path d="M22.875 25.5C22.875 25.7761 23.0989 26 23.375 26H25.5C25.7761 26 26 25.7761 26 25.5V1.5C26 1.22386 25.7761 1 25.5 1H23.375C23.0989 1 22.875 1.22386 22.875 1.5V25.5Z" fill="white"/>
<path d="M1.77735 25.4818C1.44508 25.7033 1 25.4651 1 25.0657V1.93426C1 1.53491 1.44507 1.29671 1.77735 1.51823L19.126 13.084C19.4228 13.2819 19.4228 13.7181 19.126 13.916L1.77735 25.4818Z" stroke="white"/>
<path d="M22.875 25.5C22.875 25.7761 23.0989 26 23.375 26H25.5C25.7761 26 26 25.7761 26 25.5V1.5C26 1.22386 25.7761 1 25.5 1H23.375C23.0989 1 22.875 1.22386 22.875 1.5V25.5Z" stroke="white"/>
</svg>
