<svg width="31" height="25" viewBox="0 0 31 25" fill="none" xmlns="http://www.w3.org/2000/svg">
<path d="M27.1 5.31259C30.9666 8.90634 30.9666 16.0938 27.1 19.6876" stroke="white" stroke-width="2" stroke-linecap="round"/>
<path d="M19.85 20.2281V4.77193C19.85 3.11352 19.85 2.28432 19.3185 2.00248C18.7869 1.72063 18.1005 2.1859 16.7278 3.11644L10.8135 7.12556L10.8134 7.12557C10.6201 7.25664 10.5234 7.32218 10.4153 7.36352C10.3072 7.40486 10.1914 7.42055 9.95997 7.45194L9.95995 7.45194L2.73131 8.43195C1.90629 8.5438 1.49378 8.59972 1.24689 8.88235C1 9.16497 1 9.58125 1 10.4138V14.5862C1 15.4187 1 15.835 1.24689 16.1177C1.49378 16.4003 1.90629 16.4562 2.73131 16.5681L9.95995 17.5481C10.1914 17.5794 10.3072 17.5951 10.4153 17.6365C10.5234 17.6778 10.6201 17.7434 10.8135 17.8744L16.7278 21.8836C18.1005 22.8141 18.7869 23.2794 19.3185 22.9975C19.85 22.7157 19.85 21.8865 19.85 20.2281Z" stroke="white" stroke-width="2" stroke-linecap="round"/>
</svg>
