<svg width="31" height="27" viewBox="0 0 31 27" fill="none" xmlns="http://www.w3.org/2000/svg">
<path fill-rule="evenodd" clip-rule="evenodd" d="M3.97555 4.56013C2.94056 5.84473 2.39409 7.60699 2.39409 9.44473C2.39409 11.3538 3.18253 13.2467 4.43247 15.0427C5.68098 16.8366 7.35981 18.49 9.06261 19.9044C10.7625 21.3163 12.4659 22.4733 13.7463 23.278C14.3858 23.6798 14.9178 23.9926 15.2886 24.2043C15.3613 24.2458 15.4279 24.2834 15.4878 24.3171C15.5477 24.2834 15.6143 24.2458 15.687 24.2043C16.0578 23.9926 16.5898 23.6798 17.2293 23.278C18.5097 22.4733 20.2131 21.3163 21.913 19.9044C23.6158 18.49 25.2947 16.8366 26.5432 15.0427C27.7931 13.2467 28.5815 11.3538 28.5815 9.44473C28.5815 7.60569 28.0391 5.84354 27.0069 4.55954C25.9911 3.29632 24.4807 2.4644 22.4198 2.4644C20.3377 2.4644 18.7731 3.28604 17.7139 4.1252C17.1838 4.54514 16.7861 4.96537 16.5225 5.27858C16.391 5.43478 16.2939 5.5632 16.2314 5.64998C16.2001 5.69334 16.1775 5.72619 16.1636 5.74679C16.1567 5.75708 16.1519 5.76432 16.1494 5.76824C16.1483 5.76972 16.1477 5.77072 16.1474 5.77126C16.1474 5.77135 16.1473 5.77144 16.1473 5.77144C16.1473 5.77151 16.1471 5.77164 16.1471 5.77164L15.4906 6.81201L14.8299 5.7739L14.8297 5.77371C14.8297 5.77371 14.8297 5.77362 14.8296 5.77354C14.8293 5.773 14.8286 5.77196 14.8276 5.77045C14.8249 5.76649 14.8202 5.75922 14.8132 5.7489C14.7992 5.72824 14.7764 5.69532 14.7448 5.65188C14.6817 5.56496 14.5839 5.4364 14.4517 5.28003C14.1864 4.96651 13.7867 4.54594 13.2551 4.12568C12.1925 3.2856 10.6278 2.4644 8.55584 2.4644C6.50533 2.4644 4.99425 3.29576 3.97555 4.56013ZM15.4878 25.1627C15.1141 25.8029 15.1139 25.8027 15.1136 25.8026L15.1102 25.8008L15.1015 25.7962C15.0939 25.7922 15.0831 25.7863 15.0691 25.7789C15.0411 25.7638 15.0003 25.7418 14.9476 25.713C14.8424 25.6553 14.6894 25.5703 14.4956 25.4598C14.1082 25.2387 13.5572 24.9146 12.8968 24.4996C11.5777 23.6704 9.81519 22.474 8.04906 21.0071C6.28589 19.5427 4.49873 17.7919 3.14775 15.8507C1.7982 13.9116 0.853653 11.7385 0.853653 9.44473C0.853653 7.35298 1.47214 5.25898 2.75261 3.66968C4.04938 2.06017 6.00429 1 8.55584 1C11.086 1 12.9872 2.00931 14.24 2.99973C14.7646 3.41433 15.1797 3.8287 15.4861 4.17149C15.7911 3.82867 16.2047 3.41455 16.7277 3.00021C17.9791 2.00887 19.8805 1 22.4198 1C24.9801 1 26.9357 2.05961 28.2308 3.67027C29.509 5.26017 30.1219 7.35428 30.1219 9.44473C30.1219 11.7385 29.1774 13.9116 27.8278 15.8507C26.4768 17.7919 24.6898 19.5427 22.9266 21.0071C21.1605 22.474 19.3979 23.6704 18.0788 24.4996C17.4184 24.9146 16.8674 25.2387 16.48 25.4598C16.2862 25.5703 16.1332 25.6553 16.028 25.713C15.9753 25.7418 15.9345 25.7638 15.9065 25.7789C15.8972 25.7839 15.8892 25.7881 15.8828 25.7916C15.8795 25.7934 15.8766 25.7948 15.8741 25.7962L15.8654 25.8008L15.862 25.8026C15.8617 25.8027 15.8615 25.8029 15.4878 25.1627ZM15.4878 25.1627L15.8615 25.8029L15.4878 26L15.1141 25.8029L15.4878 25.1627Z" fill="white" stroke="white"/>
</svg>
