<svg width="27" height="27" viewBox="0 0 27 27" fill="none" xmlns="http://www.w3.org/2000/svg">
<path d="M19.4211 9.99199C19.4211 10.4055 19.8944 10.6403 20.2236 10.3901L25.4762 6.39808C25.7395 6.19799 25.7395 5.80201 25.4762 5.60192L20.2236 1.60993C19.8944 1.35973 19.4211 1.59452 19.4211 2.00801V6V9.99199Z" fill="white"/>
<path d="M19.4211 6L19.4211 2.00801C19.4211 1.59452 19.8944 1.35973 20.2236 1.60993L25.4762 5.60192C25.7395 5.80201 25.7395 6.19799 25.4762 6.39808L20.2236 10.3901C19.8944 10.6403 19.4211 10.4055 19.4211 9.99199L19.4211 6ZM19.4211 6C7.14035 6.5 1.87719 4 1 13.5" stroke="white" stroke-width="2"/>
<path d="M7.57895 17.008C7.57895 16.5945 7.10561 16.3597 6.77641 16.6099L1.52379 20.6019C1.26051 20.802 1.26051 21.198 1.52379 21.3981L6.77641 25.3901C7.10561 25.6403 7.57895 25.4055 7.57895 24.992V21V17.008Z" fill="white"/>
<path d="M7.57895 21L7.57895 24.992C7.57895 25.4055 7.10561 25.6403 6.77641 25.3901L1.52379 21.3981C1.26051 21.198 1.26051 20.802 1.52379 20.6019L6.77641 16.6099C7.10561 16.3597 7.57895 16.5945 7.57895 17.008L7.57895 21ZM7.57895 21C19.8596 20.5 25.1228 23 26 13.5" stroke="white" stroke-width="2"/>
</svg>
