<svg width="286" height="214" viewBox="0 0 286 214" fill="none" xmlns="http://www.w3.org/2000/svg">
<path d="M157.353 84.8586C138.418 53.2833 156.689 -7.48057 193.502 -6.87001C230.314 -6.25944 249.86 60.8169 231.492 89.9499C213.123 119.083 176.288 116.434 157.353 84.8586V84.8586Z" stroke="white" stroke-miterlimit="10"/>
<path d="M156.716 93.3097C131.707 60.0617 145.063 -10.3835 186.505 -14.0455C227.948 -17.7076 257.837 55.3647 240.635 90.2743C223.434 125.184 181.725 126.558 156.716 93.3097V93.3097Z" stroke="white" stroke-miterlimit="10"/>
<path d="M157.489 102.205C125.881 68.2498 132.481 -11.4261 178.011 -20.3173C223.541 -29.2085 265.203 48.3403 250.197 89.0577C235.19 129.775 189.098 136.16 157.489 102.205V102.205Z" stroke="white" stroke-miterlimit="10"/>
<path d="M159.755 111.337C121.16 77.729 119.214 -10.4471 168.142 -25.4521C217.069 -40.4572 271.72 39.8199 259.951 86.2226C248.182 132.625 198.349 144.946 159.755 111.337V111.337Z" stroke="white" stroke-miterlimit="10"/>
<path d="M163.562 120.488C117.748 88.3496 105.552 -7.32248 157.047 -29.2336C208.542 -51.1447 277.153 29.9125 269.658 81.7224C262.163 133.532 209.376 152.627 163.562 120.488Z" stroke="white" stroke-miterlimit="10"/>
<path d="M168.935 129.433C115.828 99.9347 91.8063 -1.96715 144.913 -31.465C198.02 -60.9628 281.288 18.7597 279.075 75.5431C276.862 132.326 222.041 158.93 168.935 129.433V129.433Z" stroke="white" stroke-miterlimit="10"/>
<path d="M175.864 137.94C115.561 112.281 78.2979 5.66157 131.949 -31.9745C185.599 -69.6106 283.926 6.53228 287.955 67.7034C291.984 128.875 236.168 163.599 175.864 137.94V137.94Z" stroke="white" stroke-miterlimit="10"/>
<path d="M184.31 145.782C117.079 125.163 65.3549 15.5631 118.387 -30.6181C171.419 -76.7993 284.889 -6.57148 296.05 58.2557C307.211 123.083 251.541 166.4 184.31 145.782V145.782Z" stroke="white" stroke-miterlimit="10"/>
<path d="M194.203 152.732C120.488 138.337 53.3094 27.693 104.485 -27.2818C155.661 -82.2567 284.03 -20.328 303.123 47.2862C322.216 114.9 267.918 167.127 194.203 152.732V152.732Z" stroke="white" stroke-miterlimit="10"/>
<path d="M205.441 158.575C125.857 151.543 42.4869 41.9621 90.513 -21.8859C138.539 -85.7339 281.227 -34.4931 308.943 34.913C336.659 104.319 285.025 165.607 205.441 158.575V158.575Z" stroke="white" stroke-miterlimit="10"/>
<path d="M217.894 163.105C133.225 164.51 33.2043 58.2373 76.7548 -14.3859C120.305 -87.009 276.39 -48.8044 313.295 21.2859C350.2 91.3763 302.563 161.701 217.894 163.105V163.105Z" stroke="white" stroke-miterlimit="10"/>
<path d="M231.403 166.134C142.594 176.96 25.7622 76.3423 63.502 -4.77488C101.242 -85.892 269.464 -62.9866 315.982 6.58401C362.5 76.1547 320.213 155.308 231.403 166.134Z" stroke="white" stroke-miterlimit="10"/>
<path d="M245.784 167.492C153.928 188.615 20.4401 96.0603 51.0485 6.91576C81.6568 -82.2288 260.43 -76.7549 316.83 -8.98649C373.229 58.782 337.639 146.37 245.784 167.492V167.492Z" stroke="white" stroke-miterlimit="10"/>
<path d="M260.829 167.034C167.157 199.196 17.493 117.136 39.6881 20.6161C61.8833 -75.9041 249.307 -89.8197 315.689 -25.1946C382.072 39.4304 354.5 134.871 260.829 167.034V167.034Z" stroke="white" stroke-miterlimit="10"/>
<path d="M276.307 164.637C182.171 208.434 17.1418 139.28 29.7054 36.2174C42.269 -66.8451 236.15 -101.891 312.44 -41.7883C388.731 18.3146 370.443 120.841 276.307 164.637V164.637Z" stroke="white" stroke-miterlimit="10"/>
<path d="M291.974 160.212C198.827 216.07 19.5736 162.17 21.3748 53.5728C23.176 -55.024 221.051 -112.685 306.993 -58.4982C392.936 -4.31114 385.121 104.353 291.974 160.212V160.212Z" stroke="white" stroke-miterlimit="10"/>
<path d="M307.57 153.696C216.947 221.862 24.9368 185.457 14.9554 72.4994C4.97394 -40.4585 204.144 -121.926 299.296 -75.0402C394.448 -28.1545 398.193 85.53 307.57 153.696V153.696Z" stroke="white" stroke-miterlimit="10"/>
<path d="M322.821 145.062C236.317 225.588 33.3328 208.773 10.6814 92.7792C-11.9701 -23.2141 185.595 -129.353 289.327 -91.1216C393.059 -52.8905 409.326 64.5354 322.821 145.062Z" stroke="white" stroke-miterlimit="10"/>
<path d="M337.455 134.315C256.698 227.052 44.8217 231.728 8.76639 114.162C-27.2889 -3.40414 165.607 -134.724 277.107 -106.444C388.607 -78.1649 418.211 41.578 337.455 134.315Z" stroke="white" stroke-miterlimit="10"/>
<path d="M351.189 121.497C277.82 226.086 59.4108 253.926 9.38999 136.369C-40.6308 18.8112 144.414 -137.82 262.691 -120.71C380.967 -103.599 424.559 16.9082 351.189 121.497V121.497Z" stroke="white" stroke-miterlimit="10"/>
</svg>
